<?xml version="1.0" encoding="utf-8"?>
<!-- Generator: Adobe Illustrator 15.0.2, SVG Export Plug-In . SVG Version: 6.00 Build 0)  -->
<!DOCTYPE svg PUBLIC "-//W3C//DTD SVG 1.1//EN" "http://www.w3.org/Graphics/SVG/1.1/DTD/svg11.dtd">
<svg version="1.1" id="Ebene_1" xmlns="http://www.w3.org/2000/svg" xmlns:xlink="http://www.w3.org/1999/xlink" x="0px" y="0px"
	 width="134px" height="45px" viewBox="0 0 268 90" enable-background="new 0 0 268 90" xml:space="preserve">
<path d="M268,68.035c0-2.854-4.105-1.709-4.105-3.715c0-0.83,0.609-1.336,1.843-1.336c0.573,0,1.181,0.102,1.74,0.289l0.032-1.102
	c-0.524-0.102-1.115-0.186-1.64-0.186c-2.127,0-3.277,1.066-3.277,2.469c0,2.988,4.088,1.723,4.088,3.75
	c0,0.877-0.843,1.42-2.061,1.42c-0.657,0-1.333-0.121-1.874-0.27l-0.033,1.162c0.507,0.104,1.147,0.17,1.772,0.17
	C266.681,70.687,268,69.521,268,68.035 M259.384,65.13h-4.257c0.202-1.318,1.048-2.18,2.23-2.18
	C258.642,62.951,259.418,63.83,259.384,65.13 M260.703,65.451c0-1.857-0.964-3.465-3.277-3.465c-2.333,0-3.684,1.877-3.684,4.393
	c0,2.941,1.351,4.309,3.884,4.309c1.048,0,1.995-0.184,2.773-0.504l-0.119-1.084c-0.624,0.322-1.555,0.539-2.435,0.539
	c-1.873,0-2.871-1.047-2.787-3.564h5.609C260.703,65.824,260.703,65.603,260.703,65.451 M251.38,70.537v-5.861
	c0-1.49-0.59-2.705-2.517-2.705c-1.453,0-2.501,0.793-2.99,2.027l-0.034-0.018c0.102-0.424,0.134-1.117,0.134-1.672v-4.107h-1.267
	v12.336h1.267v-4.039c0-1.994,1.064-3.48,2.569-3.48c1.217,0,1.572,0.76,1.572,2.078v5.441H251.38z M242.623,70.183l-0.118-1.102
	c-0.558,0.291-1.369,0.475-2.111,0.475c-2.028,0-2.567-1.42-2.567-3.143c0-2.029,0.896-3.361,2.701-3.361
	c0.712,0,1.368,0.15,1.929,0.369l0.133-1.113c-0.589-0.186-1.283-0.289-1.977-0.289c-2.738,0-4.122,1.857-4.122,4.613
	c0,3.178,1.756,4.006,3.632,4.006C241.151,70.638,242.065,70.402,242.623,70.183 M234.651,68.035c0-2.854-4.109-1.709-4.109-3.715
	c0-0.83,0.609-1.336,1.843-1.336c0.577,0,1.184,0.102,1.741,0.289l0.033-1.102c-0.523-0.102-1.115-0.186-1.639-0.186
	c-2.13,0-3.276,1.066-3.276,2.469c0,2.988,4.087,1.723,4.087,3.75c0,0.877-0.844,1.42-2.062,1.42c-0.659,0-1.335-0.121-1.874-0.27
	l-0.033,1.162c0.505,0.104,1.146,0.17,1.771,0.17C233.331,70.687,234.651,69.521,234.651,68.035 M226.933,62.138h-1.267v8.398h1.267
	V62.138z M227.184,59.755c0-0.471-0.403-0.861-0.878-0.861c-0.487,0-0.876,0.391-0.876,0.861c0,0.49,0.389,0.863,0.876,0.863
	C226.78,60.619,227.184,60.246,227.184,59.755 M223.664,61.986c-1.76-0.203-2.638,1.047-2.974,2.281l-0.017-0.018
	c0.118-0.725,0.184-1.555,0.184-2.111h-1.248v8.398h1.266v-3.363c0-2.822,0.878-4.24,2.737-3.938L223.664,61.986z M215.939,66.279
	c0,2.312-1.201,3.328-2.519,3.328c-1.639,0-2.569-1.182-2.569-3.328c0-2.246,1.251-3.246,2.569-3.246
	C215.094,63.033,215.939,64.25,215.939,66.279 M217.257,66.195c0-3.076-1.673-4.209-3.718-4.209c-2.519,0-4.006,1.994-4.006,4.393
	c0,2.941,1.454,4.309,3.701,4.309C215.721,70.687,217.257,68.693,217.257,66.195 M208.153,70.503v-1.098
	c-0.339,0.098-0.778,0.15-1.2,0.15c-0.997,0-1.267-0.387-1.267-1.893v-4.527h2.467v-0.998h-2.467v-3.145l-1.268,0.355v2.789h-1.826
	v0.998h1.826v5.053c0,1.74,0.49,2.482,2.18,2.482C207.122,70.671,207.713,70.603,208.153,70.503 M201.328,68.035
	c0-2.854-4.104-1.709-4.104-3.715c0-0.83,0.606-1.336,1.839-1.336c0.575,0,1.183,0.102,1.742,0.289l0.032-1.102
	c-0.523-0.102-1.115-0.186-1.639-0.186c-2.129,0-3.279,1.066-3.279,2.469c0,2.988,4.09,1.723,4.09,3.75
	c0,0.877-0.844,1.42-2.062,1.42c-0.657,0-1.334-0.121-1.873-0.27l-0.034,1.162c0.505,0.104,1.149,0.17,1.775,0.17
	C200.009,70.687,201.328,69.521,201.328,68.035 M193.608,62.138h-1.265v8.398h1.265V62.138z M193.861,59.755
	c0-0.471-0.404-0.861-0.875-0.861c-0.492,0-0.88,0.391-0.88,0.861c0,0.49,0.388,0.863,0.88,0.863
	C193.457,60.619,193.861,60.246,193.861,59.755 M189.421,70.537v-5.861c0-1.49-0.591-2.705-2.518-2.705
	c-1.454,0-2.502,0.793-2.991,2.027l-0.035-0.018c0.103-0.424,0.136-1.117,0.136-1.672v-4.107h-1.266v12.336h1.266v-4.039
	c0-1.994,1.066-3.48,2.57-3.48c1.217,0,1.57,0.76,1.57,2.078v5.441H189.421z M180.749,61.986c-1.758-0.203-2.64,1.047-2.974,2.281
	l-0.02-0.018c0.119-0.725,0.188-1.555,0.188-2.111h-1.252v8.398h1.266v-3.363c0-2.822,0.88-4.24,2.739-3.938L180.749,61.986z
	 M173.746,70.537v-8.398h-1.266v4.039c0,1.994-1.064,3.48-2.568,3.48c-1.217,0-1.571-0.762-1.571-2.078v-5.441h-1.267v5.863
	c0,1.488,0.59,2.703,2.517,2.703c1.47,0,2.534-0.828,3.007-2.045l0.034,0.02c-0.084,0.504-0.133,1.314-0.133,1.857H173.746z
	 M164.939,70.503v-1.098c-0.339,0.098-0.777,0.15-1.199,0.15c-0.999,0-1.27-0.387-1.27-1.893v-4.527h2.469v-0.998h-2.469v-3.145
	l-1.268,0.355v2.789h-1.822v0.998h1.822v5.053c0,1.74,0.491,2.482,2.181,2.482C163.908,70.671,164.499,70.603,164.939,70.503
	 M156.356,66.734c0,1.455-0.979,2.924-2.466,2.924c-0.827,0-1.369-0.488-1.369-1.25c0-0.811,0.677-1.809,3.835-1.809V66.734z
	 M157.676,70.537c-0.035-0.744-0.035-1.691-0.035-2.518v-3.297c0-1.586-0.657-2.736-2.975-2.736c-1.132,0-2.111,0.271-2.903,0.623
	l0.117,1.119c0.742-0.475,1.755-0.729,2.565-0.729c1.455,0,1.911,0.711,1.911,1.977v0.693c-3.277,0-5.104,1.215-5.104,2.975
	c0,1.334,0.965,2.043,2.299,2.043c1.438,0,2.518-0.857,2.926-1.926h0.03c-0.084,0.49-0.084,1.133-0.084,1.775H157.676z
	 M149.027,70.537v-5.861c0-1.49-0.591-2.705-2.516-2.705c-1.471,0-2.536,0.826-3.008,2.041l-0.033-0.014
	c0.084-0.508,0.134-1.318,0.134-1.859h-1.251v8.398h1.268v-4.039c0-1.994,1.065-3.48,2.57-3.48c1.217,0,1.57,0.76,1.57,2.078v5.441
	H149.027z"/>
<path d="M244.694,89.83v-5.861c0-1.488-0.59-2.703-2.518-2.703c-1.471,0-2.535,0.828-3.008,2.043l-0.035-0.016
	c0.085-0.506,0.136-1.316,0.136-1.859h-1.251v8.396h1.269v-4.037c0-1.994,1.064-3.479,2.567-3.479c1.216,0,1.572,0.758,1.572,2.076
	v5.439H244.694z M234.326,84.425h-4.257c0.203-1.318,1.047-2.18,2.23-2.18C233.584,82.246,234.36,83.125,234.326,84.425
	 M235.646,84.746c0-1.859-0.964-3.463-3.278-3.463c-2.332,0-3.685,1.877-3.685,4.391c0,2.941,1.353,4.309,3.888,4.309
	c1.047,0,1.994-0.184,2.771-0.506l-0.119-1.08c-0.626,0.318-1.553,0.539-2.433,0.539c-1.874,0-2.872-1.047-2.789-3.566h5.611
	C235.646,85.117,235.646,84.898,235.646,84.746 M226.346,81.433h-1.267v8.396h1.267V81.433z M226.6,79.05
	c0-0.471-0.405-0.861-0.88-0.861c-0.489,0-0.878,0.391-0.878,0.861c0,0.49,0.389,0.861,0.878,0.861
	C226.194,79.912,226.6,79.541,226.6,79.05 M223.111,81.433h-1.353l-1.503,5.018c-0.255,0.863-0.422,1.402-0.574,2.064h-0.032
	c-0.135-0.559-0.272-1.049-0.609-2.098l-1.622-4.984h-1.437l-1.604,5.002c-0.219,0.676-0.406,1.385-0.575,2.062h-0.016
	c-0.136-0.576-0.354-1.32-0.576-2.062l-1.435-5.002h-1.421l2.601,8.396h1.472l1.536-4.916c0.222-0.707,0.441-1.387,0.609-2.109
	h0.017c0.152,0.555,0.288,1.08,0.475,1.604l1.842,5.422h1.469L223.111,81.433z M204.154,89.83v-5.828
	c0-1.893-0.911-2.736-2.486-2.736c-1.706,0-2.617,1.215-2.919,2.012c-0.035-0.645-0.442-2.012-2.352-2.012
	c-1.384,0-2.481,0.811-2.954,2.043l-0.035-0.016c0.104-0.523,0.135-1.316,0.135-1.859h-1.25v8.396h1.267v-4.002
	c0-2.062,1.13-3.514,2.518-3.514c1.284,0,1.522,0.928,1.522,2.076v5.439h1.248v-4.002c0-2.18,1.234-3.514,2.518-3.514
	c1.216,0,1.523,0.826,1.523,2.094v5.422H204.154z M189.348,89.83v-8.396h-1.269v4.041c0,1.992-1.064,3.479-2.567,3.479
	c-1.218,0-1.57-0.762-1.57-2.078v-5.441h-1.266v5.863c0,1.486,0.587,2.703,2.516,2.703c1.469,0,2.533-0.826,3.008-2.043l0.033,0.016
	c-0.085,0.508-0.136,1.32-0.136,1.857H189.348z M179.041,84.425h-4.262c0.205-1.318,1.05-2.18,2.231-2.18
	C178.295,82.246,179.073,83.125,179.041,84.425 M180.354,84.746c0-1.859-0.962-3.463-3.278-3.463c-2.329,0-3.68,1.877-3.68,4.391
	c0,2.941,1.351,4.309,3.885,4.309c1.047,0,1.995-0.184,2.771-0.506l-0.118-1.08c-0.627,0.318-1.554,0.539-2.432,0.539
	c-1.878,0-2.877-1.047-2.791-3.566h5.611C180.354,85.117,180.354,84.898,180.354,84.746 M171.572,87.33
	c0-2.854-4.105-1.707-4.105-3.715c0-0.828,0.609-1.336,1.842-1.336c0.572,0,1.182,0.102,1.74,0.287l0.033-1.098
	c-0.524-0.102-1.115-0.186-1.639-0.186c-2.128,0-3.278,1.066-3.278,2.467c0,2.99,4.088,1.725,4.088,3.752
	c0,0.877-0.844,1.418-2.062,1.418c-0.657,0-1.331-0.117-1.875-0.27l-0.034,1.166c0.51,0.102,1.148,0.166,1.775,0.166
	C170.253,89.982,171.572,88.818,171.572,87.33 M163.805,89.83v-8.396h-1.266v4.041c0,1.992-1.065,3.479-2.568,3.479
	c-1.219,0-1.57-0.762-1.57-2.078v-5.441h-1.268v5.863c0,1.486,0.589,2.703,2.516,2.703c1.471,0,2.538-0.826,3.008-2.043l0.033,0.016
	c-0.084,0.508-0.133,1.32-0.133,1.857H163.805z M154.217,89.83v-5.828c0-1.893-0.911-2.736-2.481-2.736
	c-1.709,0-2.62,1.215-2.927,2.012c-0.032-0.645-0.438-2.012-2.347-2.012c-1.387,0-2.484,0.811-2.958,2.043l-0.033-0.016
	c0.102-0.523,0.135-1.316,0.135-1.859h-1.252v8.396h1.27v-4.002c0-2.062,1.131-3.514,2.517-3.514c1.284,0,1.521,0.928,1.521,2.076
	v5.439h1.252v-4.002c0-2.18,1.232-3.514,2.518-3.514c1.217,0,1.521,0.826,1.521,2.094v5.422H154.217z"/>
<rect x="24.896" y="70.824" fill="#93141E" width="18.993" height="18.992"/>
<rect x="56.549" y="70.824" fill="#93141E" width="18.993" height="18.992"/>
<rect x="88.202" y="70.824" fill="#93141E" width="18.994" height="18.992"/>
<path fill="#707173" d="M121.152,80.673c0,5.84-0.072,6.572-2.765,7.059l-0.416,0.24c-0.51,0.406-0.363,1.785,0.144,2.027
	c2.038-0.162,4.001-0.242,6.622-0.242c2.546,0,4.48,0.08,6.881,0.242c0.51-0.242,0.653-1.621,0.144-2.027l-0.853-0.24
	c-2.619-0.408-2.765-1.219-2.765-7.059V35.432c0-5.595-4.444-10.536-10.266-10.536c-3.418,0-6.983,1.867-9.893,4.137
	c-0.655,0.486-1.55,1.135-1.82,0.647c-2.035-3.323-5.682-4.784-9.318-4.784c-3.493,0-6.911,1.947-9.673,4.137
	c-0.511,0-0.8-0.407-0.8-0.894c0-0.729,0-1.946,0.145-3.811c-0.145-0.405-0.511-0.567-0.8-0.567
	c-1.456,1.214-7.21,3.324-8.885,3.973c-0.363,0.242-0.363,1.135-0.073,1.459l0.655,0.486c1.965,1.463,1.965,2.347,1.965,5.51v14.19
	c0,5.84-0.073,6.648-2.766,7.055l-0.408,0.242c-0.509,0.406-0.363,1.785,0.146,2.029c2.253-0.164,3.547-0.244,6.165-0.244
	c2.546,0,4.927,0.08,6.892,0.244c0.51-0.244,0.652-1.623,0.147-2.029l-0.421-0.242c-2.617-0.484-2.762-1.215-2.762-7.055V36.81
	c0-2.595,0.363-3.648,1.088-4.622c1.092-1.461,3.13-2.92,6.113-2.92c4.509,0,6.692,2.92,6.692,8.353V49.38
	c0,5.84-0.074,6.57-2.765,7.055l-0.418,0.242c-0.51,0.406-0.363,1.785,0.145,2.029c2.037-0.164,4.72-0.244,7.338-0.244
	c2.545,0,3.766,0.08,5.945,0.244c0.509-0.244,0.656-1.623,0.146-2.029l-0.637-0.242c-2.619-0.406-2.763-1.215-2.763-7.055V36.973
	c0-2.838,0.217-3.649,1.091-4.865c1.02-1.46,3.273-2.839,6.038-2.839c4.583,0,6.763,2.839,6.763,8.353V80.673z M41.561,49.38
	c0,5.84-0.074,6.73-2.765,7.055l-0.483,0.242c-0.508,0.406-0.363,1.785,0.145,2.029c2.328-0.164,3.62-0.244,6.236-0.244
	c2.549,0,4.484,0.08,6.667,0.244c0.508-0.244,0.654-1.705,0.145-2.029l-0.19-0.242c-2.621-0.406-2.765-1.215-2.765-7.055V35.756
	c0-2.839,0.218-3.243,1.528-4.46s3.2-2.189,5.673-2.189c4.655,0,6.91,3.487,6.91,8.677V49.38c0,5.84-0.074,6.57-2.764,7.055
	l-0.562,0.242c-0.508,0.406-0.364,1.785,0.147,2.029c1.963-0.164,4.143-0.244,6.763-0.244c2.546,0,4.037,0.08,6.656,0.244
	c0.507-0.244,0.653-1.623,0.144-2.029l-0.625-0.242c-2.619-0.324-2.765-1.215-2.765-7.055V35.838
	c0-5.677-4.084-10.942-10.992-10.942c-3.712,0-7.205,1.947-9.822,4.218c-0.22-0.162-0.292-0.813-0.292-1.542V10.544
	c0-3.569,0.144-7.624,0.218-10.056C48.624,0.164,48.333,0,48.044,0c-2.62,1.541-7.649,2.758-9.466,3.407
	c-0.363,0.244-0.363,1.378,0,1.621l0.727,0.489c2.183,1.459,2.256,1.946,2.256,6.73V49.38z M3.715,80.673
	c0,5.84-0.073,6.65-2.763,7.059l-0.635,0.24C-0.192,88.378-0.048,89.757,0.462,90c2.035-0.162,4.938-0.242,7.554-0.242
	c2.548,0,3.765,0.08,5.728,0.242c0.509-0.242,0.656-1.621,0.146-2.027l-0.417-0.24c-2.618-0.486-2.764-1.219-2.764-7.059V36.973
	c0-2.352,0.146-3.486,1.089-4.865c1.021-1.541,3.419-2.839,6.186-2.839c4.944,0,6.836,3.408,6.836,8.029V49.38
	c0,5.84-0.071,6.57-2.765,7.055l-0.151,0.242c-0.508,0.406-0.362,1.785,0.146,2.029c1.964-0.164,4.971-0.244,7.591-0.244
	c2.545,0,3.317,0.08,5.5,0.244c0.508-0.244,0.654-1.623,0.146-2.029l-0.265-0.242c-2.619-0.406-2.764-1.215-2.764-7.055V35.432
	c0-5.432-4.528-10.536-10.567-10.536c-3.708,0-7.128,2.028-10.184,4.137c-0.511,0-0.799-0.407-0.799-0.894
	c0-0.729,0-1.946,0.146-3.811c-0.146-0.405-0.509-0.567-0.801-0.567C8.6,24.976,2.843,27.086,1.17,27.734
	c-0.364,0.242-0.364,1.135-0.073,1.459l0.655,0.486c1.963,1.463,1.963,2.347,1.963,5.51V80.673z"/>
</svg>
